<svg xmlns="http://www.w3.org/2000/svg" version="1.1" width="1600" height="3042" viewBox="0 0 1600 3042" preserveAspectRatio="xMidYMid meet" role="img" aria-labelledby="title desc">
<title id="title">PubChem Molecular Topology</title>
<desc id="desc">Infographic summarizing 4 PubChem records, with 3 parsed molecules, 1 parse errors, 0 topology errors, an implication map for the topology predicates, and a card for each graph predicate.</desc>
<defs>
  <linearGradient id="page-gradient" x1="0" y1="0" x2="1" y2="1">
    <stop offset="0%" stop-color="#F5EFE4"/>
    <stop offset="55%" stop-color="#FBF8F2"/>
    <stop offset="100%" stop-color="#EEF5F3"/>
  </linearGradient>
  <linearGradient id="hero-gradient" x1="0" y1="0" x2="1" y2="0">
    <stop offset="0%" stop-color="#1F766F"/>
    <stop offset="48%" stop-color="#1B7288"/>
    <stop offset="100%" stop-color="#C46A2D"/>
  </linearGradient>
  <filter id="card-shadow" x="-20%" y="-20%" width="140%" height="140%">
    <feDropShadow dx="0" dy="10" stdDeviation="16" flood-color="#334E68" flood-opacity="0.10"/>
  </filter>
  <marker id="dag-arrow" markerWidth="12" markerHeight="12" refX="10" refY="6" orient="auto" markerUnits="userSpaceOnUse">
    <path d="M 0 0 L 12 6 L 0 12 z" fill="#52606D"/>
  </marker>
  <marker id="dag-arrow-alert" markerWidth="12" markerHeight="12" refX="10" refY="6" orient="auto" markerUnits="userSpaceOnUse">
    <path d="M 0 0 L 12 6 L 0 12 z" fill="#B13D44"/>
  </marker>
  <style>
    text {
      font-family: 'IBM Plex Sans', 'Source Sans 3', 'Segoe UI', sans-serif;
      fill: #1F2933;
    }
    .eyebrow { font-size: 18px; font-weight: 700; letter-spacing: 0.16em; text-transform: uppercase; fill: #7B8794; }
    .hero-title { font-size: 52px; font-weight: 760; letter-spacing: -0.03em; fill: #102A43; }
    .hero-subtitle { font-size: 22px; fill: #52606D; }
    .section-title { font-size: 20px; font-weight: 700; letter-spacing: 0.08em; text-transform: uppercase; fill: #52606D; }
    .body { font-size: 22px; fill: #243B53; }
    .body-small { font-size: 20px; fill: #334E68; }
    .abstract { font-size: 18px; fill: #334E68; }
    .muted { font-size: 18px; fill: #7B8794; }
    .panel-title { font-size: 22px; font-weight: 720; fill: #102A43; }
    .panel-note { font-size: 15px; fill: #7B8794; }
    .dag-label { font-size: 20px; font-weight: 720; fill: #102A43; }
    .hist-label { font-size: 15px; fill: #52606D; }
    .hist-value { font-size: 14px; fill: #52606D; }
    .card-title { font-size: 30px; font-weight: 760; fill: #102A43; }
    .card-count { font-size: 42px; font-weight: 760; fill: #102A43; }
    .card-share { font-size: 18px; fill: #52606D; }
    .card-body { font-size: 18px; fill: #334E68; }
    .footer-title { font-size: 28px; font-weight: 760; fill: #102A43; }
    .footer-body { font-size: 18px; fill: #334E68; }
    .mono { font-family: 'IBM Plex Mono', 'SFMono-Regular', monospace; font-size: 18px; fill: #334E68; }
  </style>
</defs>
<rect width="1600" height="3042" fill="url(#page-gradient)"/>
<circle cx="1400" cy="160" r="190" fill="#C46A2D" opacity="0.08"/>
<circle cx="124" cy="2160" r="180" fill="#1B7288" opacity="0.06"/>
<circle cx="1470" cy="2232" r="110" fill="#0E9683" opacity="0.08"/>
<text x="64" y="132" class="hero-title">PubChem Molecular Topology</text>
<text x="64" y="172" class="hero-subtitle">Graph-theoretic annotations for the current PubChem CID-SMILES release.</text><g transform="translate(64 250)">
  <rect width="1472" height="194" rx="30" fill="#FFFDF8" stroke="#E3D7C7" filter="url(#card-shadow)"/>
  <rect width="1472" height="10" rx="30" fill="url(#hero-gradient)"/>
</g>
<text x="122" y="298" class="abstract" textLength="1356" lengthAdjust="spacing"><tspan font-weight="760" fill="#243B53">PubChem Molecular Topology</tspan> provides a reproducible workflow for graph-theoretic annotation of molecular structures in PubChem. In the current CID-SMILES</text>
<text x="122" y="321" class="abstract" textLength="1356" lengthAdjust="spacing">release, 4 records were downloaded and decompressed; 3 were parsed into molecular graphs, 1 failed parsing, and 3 completed topology evaluation after 0 topology</text>
<text x="122" y="344" class="abstract" textLength="1356" lengthAdjust="spacing">failures in &lt;0.1 s. Among the evaluated graphs, 3 were planar, 3 were outerplanar, 3 were cactus graphs, 3 were bipartite, 0 contained <tspan>K</tspan><tspan baseline-shift="-18%" font-size="72%">2</tspan><tspan baseline-shift="-18%" font-size="48%">,</tspan><tspan baseline-shift="-18%" font-size="72%">3</tspan> homeomorphs, 0</text>
<text x="122" y="367" class="abstract" textLength="1356" lengthAdjust="spacing">contained <tspan>K</tspan><tspan baseline-shift="-18%" font-size="72%">4</tspan> homeomorphs, and 0 contained <tspan>K</tspan><tspan baseline-shift="-18%" font-size="72%">3</tspan><tspan baseline-shift="-18%" font-size="48%">,</tspan><tspan baseline-shift="-18%" font-size="72%">3</tspan> homeomorphs. Per-CID boolean annotations were written to Parquet, and connected-component counts plus</text>
<text x="122" y="390" class="abstract" textLength="1356" lengthAdjust="spacing">exact diameters for connected molecules were stored alongside them, where the diameter is the longest of the shortest paths, while aggregate summaries were</text>
<text x="122" y="413" class="abstract">accumulated in the same pass. The source code is available on GitHub, and released result sets are deposited in Zenodo.</text><g transform="translate(64 472)">
  <g transform="translate(0 0)">
  <rect width="720" height="146" rx="28" fill="#FFFDF8" stroke="#E3D7C7" filter="url(#card-shadow)"/>
  <rect width="720" height="10" rx="28" fill="#1B7288" fill-opacity="0.92"/>
  <text x="32" y="34" class="panel-title">Connected components</text>
  <line x1="34" y1="112" x2="686" y2="112" stroke="#D9E2EC" stroke-width="2"/>
  <rect x="170.92" y="58.00" width="378.16" height="54.00" rx="8" fill="#1B7288" fill-opacity="0.86"/>
<text x="360.00" y="134.00" text-anchor="middle" class="hist-label">1</text>
<text x="360.00" y="50.00" text-anchor="middle" class="hist-value">3</text>
</g>
  <g transform="translate(752 0)">
  <rect width="720" height="146" rx="28" fill="#FFFDF8" stroke="#E3D7C7" filter="url(#card-shadow)"/>
  <rect width="720" height="10" rx="28" fill="#A5503A" fill-opacity="0.92"/>
  <text x="32" y="34" class="panel-title">Diameter</text>
  <line x1="34" y1="112" x2="686" y2="112" stroke="#D9E2EC" stroke-width="2"/>
  <rect x="102.46" y="85.00" width="189.08" height="27.00" rx="8" fill="#A5503A" fill-opacity="0.86"/>
<text x="197.00" y="134.00" text-anchor="middle" class="hist-label">2</text>
<text x="197.00" y="77.00" text-anchor="middle" class="hist-value">1</text>
<rect x="428.46" y="58.00" width="189.08" height="54.00" rx="8" fill="#A5503A" fill-opacity="0.86"/>
<text x="523.00" y="134.00" text-anchor="middle" class="hist-label">3</text>
<text x="523.00" y="50.00" text-anchor="middle" class="hist-value">2</text>
</g>
  <g transform="translate(0 174)">
  <rect width="720" height="146" rx="28" fill="#FFFDF8" stroke="#E3D7C7" filter="url(#card-shadow)"/>
  <rect width="720" height="10" rx="28" fill="#C46A2D" fill-opacity="0.92"/>
  <text x="32" y="34" class="panel-title">Triangle count</text>
  <line x1="34" y1="112" x2="686" y2="112" stroke="#D9E2EC" stroke-width="2"/>
  <rect x="170.92" y="58.00" width="378.16" height="54.00" rx="8" fill="#C46A2D" fill-opacity="0.86"/>
<text x="360.00" y="134.00" text-anchor="middle" class="hist-label">0</text>
<text x="360.00" y="50.00" text-anchor="middle" class="hist-value">3</text>
</g>
  <g transform="translate(752 174)">
  <rect width="720" height="146" rx="28" fill="#FFFDF8" stroke="#E3D7C7" filter="url(#card-shadow)"/>
  <rect width="720" height="10" rx="28" fill="#7D3A1B" fill-opacity="0.92"/>
  <text x="32" y="34" class="panel-title">Square count</text>
  <line x1="34" y1="112" x2="686" y2="112" stroke="#D9E2EC" stroke-width="2"/>
  <rect x="170.92" y="58.00" width="378.16" height="54.00" rx="8" fill="#7D3A1B" fill-opacity="0.86"/>
<text x="360.00" y="134.00" text-anchor="middle" class="hist-label">0</text>
<text x="360.00" y="50.00" text-anchor="middle" class="hist-value">3</text>
</g>
  <g transform="translate(0 348)">
  <rect width="720" height="146" rx="28" fill="#FFFDF8" stroke="#E3D7C7" filter="url(#card-shadow)"/>
  <rect width="720" height="10" rx="28" fill="#2F6F65" fill-opacity="0.92"/>
  <text x="32" y="34" class="panel-title">Clustering coefficient</text>
  <line x1="34" y1="112" x2="686" y2="112" stroke="#D9E2EC" stroke-width="2"/>
  <rect x="61.38" y="58.00" width="75.63" height="54.00" rx="8" fill="#2F6F65" fill-opacity="0.86"/>
<text x="99.20" y="134.00" text-anchor="middle" class="hist-label">0.0-0.2</text>
<text x="99.20" y="50.00" text-anchor="middle" class="hist-value">3</text>
<rect x="191.78" y="108.00" width="75.63" height="4.00" rx="8" fill="#2F6F65" fill-opacity="0.86"/>
<text x="229.60" y="134.00" text-anchor="middle" class="hist-label">0.2-0.4</text>
<text x="229.60" y="100.00" text-anchor="middle" class="hist-value">0</text>
<rect x="322.18" y="108.00" width="75.63" height="4.00" rx="8" fill="#2F6F65" fill-opacity="0.86"/>
<text x="360.00" y="134.00" text-anchor="middle" class="hist-label">0.4-0.6</text>
<text x="360.00" y="100.00" text-anchor="middle" class="hist-value">0</text>
<rect x="452.58" y="108.00" width="75.63" height="4.00" rx="8" fill="#2F6F65" fill-opacity="0.86"/>
<text x="490.40" y="134.00" text-anchor="middle" class="hist-label">0.6-0.8</text>
<text x="490.40" y="100.00" text-anchor="middle" class="hist-value">0</text>
<rect x="582.98" y="108.00" width="75.63" height="4.00" rx="8" fill="#2F6F65" fill-opacity="0.86"/>
<text x="620.80" y="134.00" text-anchor="middle" class="hist-label">0.8-1.0</text>
<text x="620.80" y="100.00" text-anchor="middle" class="hist-value">0</text>
</g>
  <g transform="translate(752 348)">
  <rect width="720" height="146" rx="28" fill="#FFFDF8" stroke="#E3D7C7" filter="url(#card-shadow)"/>
  <rect width="720" height="10" rx="28" fill="#3856A6" fill-opacity="0.92"/>
  <text x="32" y="34" class="panel-title">Square clustering</text>
  <line x1="34" y1="112" x2="686" y2="112" stroke="#D9E2EC" stroke-width="2"/>
  <rect x="61.38" y="58.00" width="75.63" height="54.00" rx="8" fill="#3856A6" fill-opacity="0.86"/>
<text x="99.20" y="134.00" text-anchor="middle" class="hist-label">0.0-0.2</text>
<text x="99.20" y="50.00" text-anchor="middle" class="hist-value">3</text>
<rect x="191.78" y="108.00" width="75.63" height="4.00" rx="8" fill="#3856A6" fill-opacity="0.86"/>
<text x="229.60" y="134.00" text-anchor="middle" class="hist-label">0.2-0.4</text>
<text x="229.60" y="100.00" text-anchor="middle" class="hist-value">0</text>
<rect x="322.18" y="108.00" width="75.63" height="4.00" rx="8" fill="#3856A6" fill-opacity="0.86"/>
<text x="360.00" y="134.00" text-anchor="middle" class="hist-label">0.4-0.6</text>
<text x="360.00" y="100.00" text-anchor="middle" class="hist-value">0</text>
<rect x="452.58" y="108.00" width="75.63" height="4.00" rx="8" fill="#3856A6" fill-opacity="0.86"/>
<text x="490.40" y="134.00" text-anchor="middle" class="hist-label">0.6-0.8</text>
<text x="490.40" y="100.00" text-anchor="middle" class="hist-value">0</text>
<rect x="582.98" y="108.00" width="75.63" height="4.00" rx="8" fill="#3856A6" fill-opacity="0.86"/>
<text x="620.80" y="134.00" text-anchor="middle" class="hist-label">0.8-1.0</text>
<text x="620.80" y="100.00" text-anchor="middle" class="hist-value">0</text>
</g>
</g>
<g transform="translate(64 998)">
  <rect width="1472" height="390" rx="28" fill="#FFFDF8" stroke="#E3D7C7" filter="url(#card-shadow)"/>
  <rect width="1472" height="10" rx="28" fill="url(#hero-gradient)"/>
  <text x="32" y="40" class="panel-title">Implication map</text>
  <text x="32" y="62" class="panel-note">Read dark arrows as direct implications. Dashed red arrows mark forbidden subdivisions for the class above.</text>
  <g transform="translate(17 12)">
    <text x="1140" y="278" text-anchor="middle" class="panel-note">Forbidden subdivisions</text>
    <path d="M 228.00 196.00 H 326.00" fill="none" stroke="#52606D" stroke-width="3.00" stroke-opacity="0.94" stroke-linecap="round" stroke-linejoin="round" marker-end="url(#dag-arrow)"/>
<path d="M 502.00 196.00 H 590.00" fill="none" stroke="#52606D" stroke-width="3.00" stroke-opacity="0.94" stroke-linecap="round" stroke-linejoin="round" marker-end="url(#dag-arrow)"/>
<path d="M 414.00 164.00 V 136.00" fill="none" stroke="#52606D" stroke-width="3.00" stroke-opacity="0.94" stroke-linecap="round" stroke-linejoin="round" marker-end="url(#dag-arrow)"/>
<path d="M 414.00 228.00 V 256.00" fill="none" stroke="#52606D" stroke-width="3.00" stroke-opacity="0.94" stroke-linecap="round" stroke-linejoin="round" marker-end="url(#dag-arrow)"/>
<path d="M 766.00 196.00 H 878.00" fill="none" stroke="#52606D" stroke-width="3.00" stroke-opacity="0.94" stroke-linecap="round" stroke-linejoin="round" marker-end="url(#dag-arrow)"/>
<path d="M 1094.00 196.00 H 1190.00" fill="none" stroke="#52606D" stroke-width="3.00" stroke-opacity="0.94" stroke-linecap="round" stroke-linejoin="round" marker-end="url(#dag-arrow)"/>
    <path d="M 934.00 298.00 V 228.00" fill="none" stroke="#B13D44" stroke-width="2.30" stroke-opacity="0.90" stroke-linecap="round" stroke-linejoin="round" stroke-dasharray="10 8" marker-end="url(#dag-arrow-alert)"/>
<path d="M 1038.00 298.00 V 228.00" fill="none" stroke="#B13D44" stroke-width="2.30" stroke-opacity="0.90" stroke-linecap="round" stroke-linejoin="round" stroke-dasharray="10 8" marker-end="url(#dag-arrow-alert)"/>
<path d="M 1268.00 298.00 V 228.00" fill="none" stroke="#B13D44" stroke-width="2.30" stroke-opacity="0.90" stroke-linecap="round" stroke-linejoin="round" stroke-dasharray="10 8" marker-end="url(#dag-arrow-alert)"/>
    <g>
  <rect x="92" y="164" width="136" height="64" rx="18" fill="#2F6F65" fill-opacity="0.08" stroke="#2F6F65" stroke-opacity="0.36" stroke-width="2"/>
  <text x="160" y="203" text-anchor="middle" class="dag-label" fill="#2F6F65">Tree</text>
</g>
<g>
  <rect x="326" y="164" width="176" height="64" rx="18" fill="#5A8F42" fill-opacity="0.08" stroke="#5A8F42" stroke-opacity="0.36" stroke-width="2"/>
  <text x="414" y="203" text-anchor="middle" class="dag-label" fill="#5A8F42">Forest</text>
</g>
<g>
  <rect x="590" y="164" width="176" height="64" rx="18" fill="#C46A2D" fill-opacity="0.08" stroke="#C46A2D" stroke-opacity="0.36" stroke-width="2"/>
  <text x="678" y="203" text-anchor="middle" class="dag-label" fill="#C46A2D">Cactus</text>
</g>
<g>
  <rect x="324" y="72" width="180" height="64" rx="18" fill="#A5503A" fill-opacity="0.08" stroke="#A5503A" stroke-opacity="0.36" stroke-width="2"/>
  <text x="414" y="111" text-anchor="middle" class="dag-label" fill="#A5503A">Chordal</text>
</g>
<g>
  <rect x="310" y="256" width="208" height="64" rx="18" fill="#3856A6" fill-opacity="0.08" stroke="#3856A6" stroke-opacity="0.36" stroke-width="2"/>
  <text x="414" y="295" text-anchor="middle" class="dag-label" fill="#3856A6">Bipartite</text>
</g>
<g>
  <rect x="878" y="164" width="216" height="64" rx="18" fill="#0E9683" fill-opacity="0.08" stroke="#0E9683" stroke-opacity="0.36" stroke-width="2"/>
  <text x="986" y="203" text-anchor="middle" class="dag-label" fill="#0E9683">Outerplanar</text>
</g>
<g>
  <rect x="1190" y="164" width="156" height="64" rx="18" fill="#1B7288" fill-opacity="0.08" stroke="#1B7288" stroke-opacity="0.36" stroke-width="2"/>
  <text x="1268" y="203" text-anchor="middle" class="dag-label" fill="#1B7288">Planar</text>
</g>
    <g>
  <rect x="882" y="298" width="104" height="46" rx="18" fill="#A35C17" fill-opacity="0.10" stroke="#A35C17" stroke-opacity="0.44" stroke-width="2"/>
  <text x="934" y="328" text-anchor="middle" class="dag-label" fill="#A35C17"><tspan>K</tspan><tspan baseline-shift="-18%" font-size="72%">2</tspan><tspan baseline-shift="-18%" font-size="48%">,</tspan><tspan baseline-shift="-18%" font-size="72%">3</tspan></text>
</g>
<g>
  <rect x="998" y="298" width="80" height="46" rx="18" fill="#7D3A1B" fill-opacity="0.10" stroke="#7D3A1B" stroke-opacity="0.44" stroke-width="2"/>
  <text x="1038" y="328" text-anchor="middle" class="dag-label" fill="#7D3A1B"><tspan>K</tspan><tspan baseline-shift="-18%" font-size="72%">4</tspan></text>
</g>
<g>
  <rect x="1216" y="298" width="104" height="46" rx="18" fill="#B13D44" fill-opacity="0.10" stroke="#B13D44" stroke-opacity="0.44" stroke-width="2"/>
  <text x="1268" y="328" text-anchor="middle" class="dag-label" fill="#B13D44"><tspan>K</tspan><tspan baseline-shift="-18%" font-size="72%">3</tspan><tspan baseline-shift="-18%" font-size="48%">,</tspan><tspan baseline-shift="-18%" font-size="72%">3</tspan></text>
</g>
  </g>
  <g transform="translate(1148 44)">
    <line x1="0" y1="0" x2="44" y2="0" stroke="#52606D" stroke-width="3.0" stroke-linecap="round" marker-end="url(#dag-arrow)"/>
    <text x="56" y="6" class="panel-note">direct</text>
    <line x1="176" y1="0" x2="220" y2="0" stroke="#B13D44" stroke-width="2.3" stroke-linecap="round" stroke-dasharray="10 8" marker-end="url(#dag-arrow-alert)"/>
    <text x="232" y="6" class="panel-note">forbids</text>
  </g>
</g>
<g transform="translate(64 1416)">
  <rect width="720" height="272" rx="28" fill="#FFFDF8" stroke="#E3D7C7" filter="url(#card-shadow)"/>
  <rect width="720" height="12" rx="28" fill="#2F6F65"/>
  <rect x="22" y="42" width="160" height="160" rx="22" fill="#F7F4EA" stroke="#2F6F65" stroke-opacity="0.16"/>
  <g transform="translate(24.94 30.94) scale(0.96320003)" color="#2F6F65" fill="none" style="--node-fill:#FFFDF8">
    <g stroke="currentColor" stroke-width="4" stroke-linecap="round" stroke-linejoin="round">
    <line x1="80" y1="128" x2="56" y2="96"/>
    <line x1="80" y1="128" x2="104" y2="96"/>
    <line x1="56" y1="96" x2="32" y2="56"/>
    <line x1="56" y1="96" x2="64" y2="56"/>
    <line x1="104" y1="96" x2="96" y2="56"/>
    <line x1="104" y1="96" x2="128" y2="56"/>
  </g>
  <g stroke="currentColor" stroke-width="3">
    <circle cx="80" cy="128" r="12" fill="var(--node-fill, #F7F4EA)"/>
    <circle cx="56" cy="96" r="9" fill="var(--node-fill, #F7F4EA)"/>
    <circle cx="104" cy="96" r="9" fill="var(--node-fill, #F7F4EA)"/>
    <circle cx="32" cy="56" r="8" fill="var(--node-fill, #F7F4EA)"/>
    <circle cx="64" cy="56" r="8" fill="var(--node-fill, #F7F4EA)"/>
    <circle cx="96" cy="56" r="8" fill="var(--node-fill, #F7F4EA)"/>
    <circle cx="128" cy="56" r="8" fill="var(--node-fill, #F7F4EA)"/>
  </g>
  </g>
  <text x="196" y="58" text-anchor="start" class="card-title" fill="#102A43">Tree</text>
  <text x="196" y="126" class="card-count">1</text>
  <text x="196" y="152" class="card-share">33.333% of evaluated molecules</text>
  <rect x="196" y="168" width="470" height="12" rx="6" fill="#E8E0D3"/>
  <rect x="196" y="168" width="157" height="12" rx="6" fill="#2F6F65" fill-opacity="1.0"/>
  <text x="196" y="210" class="card-body">Connected and acyclic, with n-1 edges and one simple</text>
<text x="196" y="234" class="card-body">path between any two vertices.</text>
</g>
<g transform="translate(816 1416)">
  <rect width="720" height="272" rx="28" fill="#FFFDF8" stroke="#E3D7C7" filter="url(#card-shadow)"/>
  <rect width="720" height="12" rx="28" fill="#5A8F42"/>
  <rect x="22" y="42" width="160" height="160" rx="22" fill="#F7F4EA" stroke="#5A8F42" stroke-opacity="0.16"/>
  <g transform="translate(24.94 54.94) scale(0.96320003)" color="#5A8F42" fill="none" style="--node-fill:#FFFDF8">
    <g stroke="currentColor" stroke-width="3" stroke-linecap="round" stroke-linejoin="round">
    <path d="M36 62 L24 42"/>
    <path d="M36 62 L48 42"/>
    <path d="M36 62 L36 88"/>
    <circle cx="36" cy="62" r="6" fill="var(--node-fill, #F7F4EA)" stroke="currentColor"/>
    <circle cx="24" cy="42" r="6" fill="var(--node-fill, #F7F4EA)" stroke="currentColor"/>
    <circle cx="48" cy="42" r="6" fill="var(--node-fill, #F7F4EA)" stroke="currentColor"/>
    <circle cx="36" cy="88" r="6" fill="var(--node-fill, #F7F4EA)" stroke="currentColor"/>

    <path d="M80 46 L68 62"/>
    <path d="M80 46 L92 62"/>
    <path d="M80 46 L80 78"/>
    <path d="M80 78 L72 98"/>
    <path d="M80 78 L88 98"/>
    <circle cx="80" cy="46" r="6" fill="var(--node-fill, #F7F4EA)" stroke="currentColor"/>
    <circle cx="68" cy="62" r="6" fill="var(--node-fill, #F7F4EA)" stroke="currentColor"/>
    <circle cx="92" cy="62" r="6" fill="var(--node-fill, #F7F4EA)" stroke="currentColor"/>
    <circle cx="80" cy="78" r="6" fill="var(--node-fill, #F7F4EA)" stroke="currentColor"/>
    <circle cx="72" cy="98" r="6" fill="var(--node-fill, #F7F4EA)" stroke="currentColor"/>
    <circle cx="88" cy="98" r="6" fill="var(--node-fill, #F7F4EA)" stroke="currentColor"/>

    <path d="M124 62 L112 42"/>
    <path d="M124 62 L136 42"/>
    <path d="M124 62 L124 88"/>
    <circle cx="124" cy="62" r="6" fill="var(--node-fill, #F7F4EA)" stroke="currentColor"/>
    <circle cx="112" cy="42" r="6" fill="var(--node-fill, #F7F4EA)" stroke="currentColor"/>
    <circle cx="136" cy="42" r="6" fill="var(--node-fill, #F7F4EA)" stroke="currentColor"/>
    <circle cx="124" cy="88" r="6" fill="var(--node-fill, #F7F4EA)" stroke="currentColor"/>
  </g>
  </g>
  <text x="196" y="58" text-anchor="start" class="card-title" fill="#102A43">Forest</text>
  <text x="196" y="126" class="card-count">1</text>
  <text x="196" y="152" class="card-share">33.333% of evaluated molecules</text>
  <rect x="196" y="168" width="470" height="12" rx="6" fill="#E8E0D3"/>
  <rect x="196" y="168" width="157" height="12" rx="6" fill="#5A8F42" fill-opacity="1.0"/>
  <text x="196" y="210" class="card-body">A disjoint union of trees: acyclic overall, but not required</text>
<text x="196" y="234" class="card-body">to form one connected component.</text>
</g>
<g transform="translate(64 1716)">
  <rect width="720" height="272" rx="28" fill="#FFFDF8" stroke="#E3D7C7" filter="url(#card-shadow)"/>
  <rect width="720" height="12" rx="28" fill="#C46A2D"/>
  <rect x="22" y="42" width="160" height="160" rx="22" fill="#F7F4EA" stroke="#C46A2D" stroke-opacity="0.16"/>
  <g transform="translate(26.32 36.32) scale(0.94600004)" color="#C46A2D" fill="none" style="--node-fill:#FFFDF8">
    <g stroke="currentColor" stroke-width="3.5" stroke-linecap="round" stroke-linejoin="round">
    <path d="M80 80 L44 54 L44 106 Z"/>
    <path d="M80 80 L116 54 L116 106 Z"/>
    <path d="M80 80 L80 132"/>
  </g>

  <g stroke="currentColor" stroke-width="2.2">
    <circle cx="80" cy="80" r="6.5" fill="var(--node-fill, #F7F4EA)"/>
    <circle cx="44" cy="54" r="5.5" fill="var(--node-fill, #F7F4EA)"/>
    <circle cx="44" cy="106" r="5.5" fill="var(--node-fill, #F7F4EA)"/>
    <circle cx="116" cy="54" r="5.5" fill="var(--node-fill, #F7F4EA)"/>
    <circle cx="116" cy="106" r="5.5" fill="var(--node-fill, #F7F4EA)"/>
    <circle cx="80" cy="132" r="5.5" fill="var(--node-fill, #F7F4EA)"/>
  </g>
  </g>
  <text x="196" y="58" text-anchor="start" class="card-title" fill="#102A43">Cactus</text>
  <text x="196" y="126" class="card-count">3</text>
  <text x="196" y="152" class="card-share">100.000% of evaluated molecules</text>
  <rect x="196" y="168" width="470" height="12" rx="6" fill="#E8E0D3"/>
  <rect x="196" y="168" width="470" height="12" rx="6" fill="#C46A2D" fill-opacity="1.0"/>
  <text x="196" y="210" class="card-body">Each edge lies on at most one simple cycle, so cycles</text>
<text x="196" y="234" class="card-body">can meet only at articulation vertices.</text>
</g>
<g transform="translate(816 1716)">
  <rect width="720" height="272" rx="28" fill="#FFFDF8" stroke="#E3D7C7" filter="url(#card-shadow)"/>
  <rect width="720" height="12" rx="28" fill="#A5503A"/>
  <rect x="22" y="42" width="160" height="160" rx="22" fill="#F7F4EA" stroke="#A5503A" stroke-opacity="0.16"/>
  <g transform="translate(22.19 42.19) scale(0.99759996)" color="#A5503A" fill="none" style="--node-fill:#FFFDF8">
    <g stroke="currentColor" stroke-width="3.8" stroke-linecap="round" stroke-linejoin="round">
    <g opacity="0.62">
      <path d="M36 36H124"/>
      <path d="M124 36V124"/>
      <path d="M124 124H36"/>
      <path d="M36 124V36"/>
    </g>
    <path d="M36 124L124 36"/>
  </g>
  <g fill="var(--node-fill, #F7F4EA)" stroke="currentColor" stroke-width="2.8">
    <circle cx="36" cy="36" r="8"/>
    <circle cx="124" cy="36" r="8"/>
    <circle cx="124" cy="124" r="8"/>
    <circle cx="36" cy="124" r="8"/>
  </g>
  </g>
  <text x="196" y="58" text-anchor="start" class="card-title" fill="#102A43">Chordal</text>
  <text x="196" y="126" class="card-count">1</text>
  <text x="196" y="152" class="card-share">33.333% of evaluated molecules</text>
  <rect x="196" y="168" width="470" height="12" rx="6" fill="#E8E0D3"/>
  <rect x="196" y="168" width="157" height="12" rx="6" fill="#A5503A" fill-opacity="1.0"/>
  <text x="196" y="210" class="card-body">Every cycle of length at least four has a chord, excluding</text>
<text x="196" y="234" class="card-body">induced long cycles.</text>
</g>
<g transform="translate(64 2016)">
  <rect width="720" height="272" rx="28" fill="#FFFDF8" stroke="#E3D7C7" filter="url(#card-shadow)"/>
  <rect width="720" height="12" rx="28" fill="#1B7288"/>
  <rect x="22" y="42" width="160" height="160" rx="22" fill="#F7F4EA" stroke="#1B7288" stroke-opacity="0.16"/>
  <g transform="translate(26.32 46.32) scale(0.94600004)" color="#1B7288" fill="none" style="--node-fill:#FFFDF8">
    <g fill="none" stroke="currentColor" stroke-width="2.5" stroke-linecap="round" stroke-linejoin="round">
    <path d="M80 30 L123.3 55 L123.3 105 L80 130 L36.7 105 L36.7 55 Z"/>
    <path d="M80 80 L80 30"/>
    <path d="M80 80 L123.3 55"/>
    <path d="M80 80 L123.3 105"/>
    <path d="M80 80 L80 130"/>
    <path d="M80 80 L36.7 105"/>
    <path d="M80 80 L36.7 55"/>
  </g>

  <g stroke="currentColor" stroke-width="2.5">
    <circle cx="80" cy="30" r="6.5" fill="var(--node-fill, #F7F4EA)"/>
    <circle cx="123.3" cy="55" r="6.5" fill="var(--node-fill, #F7F4EA)"/>
    <circle cx="123.3" cy="105" r="6.5" fill="var(--node-fill, #F7F4EA)"/>
    <circle cx="80" cy="130" r="6.5" fill="var(--node-fill, #F7F4EA)"/>
    <circle cx="36.7" cy="105" r="6.5" fill="var(--node-fill, #F7F4EA)"/>
    <circle cx="36.7" cy="55" r="6.5" fill="var(--node-fill, #F7F4EA)"/>
    <circle cx="80" cy="80" r="7.5" fill="var(--node-fill, #F7F4EA)"/>
  </g>
  </g>
  <text x="196" y="58" text-anchor="start" class="card-title" fill="#102A43">Planar</text>
  <text x="196" y="126" class="card-count">3</text>
  <text x="196" y="152" class="card-share">100.000% of evaluated molecules</text>
  <rect x="196" y="168" width="470" height="12" rx="6" fill="#E8E0D3"/>
  <rect x="196" y="168" width="470" height="12" rx="6" fill="#1B7288" fill-opacity="1.0"/>
  <text x="196" y="210" class="card-body">Can be embedded in the plane with no edge crossings</text>
<text x="196" y="234" class="card-body">after redrawing if needed.</text>
</g>
<g transform="translate(816 2016)">
  <rect width="720" height="272" rx="28" fill="#FFFDF8" stroke="#E3D7C7" filter="url(#card-shadow)"/>
  <rect width="720" height="12" rx="28" fill="#0E9683"/>
  <rect x="22" y="42" width="160" height="160" rx="22" fill="#F7F4EA" stroke="#0E9683" stroke-opacity="0.16"/>
  <g transform="translate(26.32 46.32) scale(0.94600004)" color="#0E9683" fill="none" style="--node-fill:#FFFDF8">
    <g stroke="currentColor" stroke-width="4">
    <line x1="80" y1="24" x2="126" y2="50"/>
    <line x1="126" y1="50" x2="126" y2="110"/>
    <line x1="126" y1="110" x2="80" y2="136"/>
    <line x1="80" y1="136" x2="34" y2="110"/>
    <line x1="34" y1="110" x2="34" y2="50"/>
    <line x1="34" y1="50" x2="80" y2="24"/>
    <line x1="80" y1="24" x2="126" y2="110"/>
    <line x1="126" y1="110" x2="34" y2="110"/>
    <line x1="34" y1="110" x2="80" y2="24"/>
  </g>
  <g stroke="currentColor" stroke-width="2">
    <circle cx="80" cy="24" r="7" fill="var(--node-fill, #F7F4EA)"/>
    <circle cx="126" cy="50" r="7" fill="var(--node-fill, #F7F4EA)"/>
    <circle cx="126" cy="110" r="7" fill="var(--node-fill, #F7F4EA)"/>
    <circle cx="80" cy="136" r="7" fill="var(--node-fill, #F7F4EA)"/>
    <circle cx="34" cy="110" r="7" fill="var(--node-fill, #F7F4EA)"/>
    <circle cx="34" cy="50" r="7" fill="var(--node-fill, #F7F4EA)"/>
  </g>
  </g>
  <text x="196" y="58" text-anchor="start" class="card-title" fill="#102A43">Outerplanar</text>
  <text x="196" y="126" class="card-count">3</text>
  <text x="196" y="152" class="card-share">100.000% of evaluated molecules</text>
  <rect x="196" y="168" width="470" height="12" rx="6" fill="#E8E0D3"/>
  <rect x="196" y="168" width="470" height="12" rx="6" fill="#0E9683" fill-opacity="1.0"/>
  <text x="196" y="210" class="card-body">Planar and drawable with every vertex on the outer face.</text>
</g>
<g transform="translate(64 2316)">
  <rect width="720" height="272" rx="28" fill="#FFFDF8" stroke="#E3D7C7" filter="url(#card-shadow)"/>
  <rect width="720" height="12" rx="28" fill="#A35C17"/>
  <rect x="22" y="42" width="160" height="160" rx="22" fill="#F7F4EA" stroke="#A35C17" stroke-opacity="0.16"/>
  <g transform="translate(27.70 47.70) scale(0.92880005)" color="#A35C17" fill="none" style="--node-fill:#FFFDF8">
    <title id="title">K2,3 homeomorph</title>
  <desc id="desc">The complete bipartite graph K2,3 drawn with two vertices in one partition and three in the other.</desc>
  <g stroke="currentColor" stroke-width="2.8" stroke-linecap="round" stroke-linejoin="round" opacity="0.94">
    <path d="M44 34L18 124"/>
    <path d="M44 34L80 124"/>
    <path d="M44 34L142 124"/>

    <path d="M116 34L18 124"/>
    <path d="M116 34L80 124"/>
    <path d="M116 34L142 124"/>
  </g>

  <g fill="var(--node-fill, #F7F4EA)" stroke="currentColor" stroke-width="2.8">
    <circle cx="44" cy="34" r="7.8"/>
    <circle cx="116" cy="34" r="7.8"/>

    <circle cx="18" cy="124" r="7.8"/>
    <circle cx="80" cy="124" r="7.8"/>
    <circle cx="142" cy="124" r="7.8"/>
  </g>
  </g>
  <text x="196" y="58" text-anchor="start" class="card-title" fill="#102A43"><tspan>K</tspan><tspan baseline-shift="-18%" font-size="72%">2</tspan><tspan baseline-shift="-18%" font-size="48%">,</tspan><tspan baseline-shift="-18%" font-size="72%">3</tspan><tspan> Homeomorph</tspan></text>
  <text x="196" y="126" class="card-count">0</text>
  <text x="196" y="152" class="card-share">0.000% of evaluated molecules</text>
  <rect x="196" y="168" width="470" height="12" rx="6" fill="#E8E0D3"/>
  <rect x="196" y="168" width="24" height="12" rx="6" fill="#A35C17" fill-opacity="0.28"/>
  <text x="196" y="210" class="card-body">Contains a subdivision of <tspan>K</tspan><tspan baseline-shift="-18%" font-size="72%">2</tspan><tspan baseline-shift="-18%" font-size="48%">,</tspan><tspan baseline-shift="-18%" font-size="72%">3</tspan>, a classical obstruction to</text>
<text x="196" y="234" class="card-body">outerplanarity.</text>
</g>
<g transform="translate(816 2316)">
  <rect width="720" height="272" rx="28" fill="#FFFDF8" stroke="#E3D7C7" filter="url(#card-shadow)"/>
  <rect width="720" height="12" rx="28" fill="#B13D44"/>
  <rect x="22" y="42" width="160" height="160" rx="22" fill="#F7F4EA" stroke="#B13D44" stroke-opacity="0.16"/>
  <g transform="translate(27.70 47.70) scale(0.92880005)" color="#B13D44" fill="none" style="--node-fill:#FFFDF8">
    <g stroke="currentColor" stroke-width="2.8" stroke-linecap="round" stroke-linejoin="round" opacity="0.94">
    <path d="M28 34L28 126"/>
    <path d="M28 34L80 126"/>
    <path d="M28 34L132 126"/>

    <path d="M80 34L28 126"/>
    <path d="M80 34L80 126"/>
    <path d="M80 34L132 126"/>

    <path d="M132 34L28 126"/>
    <path d="M132 34L80 126"/>
    <path d="M132 34L132 126"/>
  </g>

  <g fill="var(--node-fill, #F7F4EA)" stroke="currentColor" stroke-width="2.8">
    <circle cx="28" cy="34" r="7.6"/>
    <circle cx="80" cy="34" r="7.6"/>
    <circle cx="132" cy="34" r="7.6"/>

    <circle cx="28" cy="126" r="7.6"/>
    <circle cx="80" cy="126" r="7.6"/>
    <circle cx="132" cy="126" r="7.6"/>
  </g>
  </g>
  <text x="196" y="58" text-anchor="start" class="card-title" fill="#102A43"><tspan>K</tspan><tspan baseline-shift="-18%" font-size="72%">3</tspan><tspan baseline-shift="-18%" font-size="48%">,</tspan><tspan baseline-shift="-18%" font-size="72%">3</tspan><tspan> Homeomorph</tspan></text>
  <text x="196" y="126" class="card-count">0</text>
  <text x="196" y="152" class="card-share">0.000% of evaluated molecules</text>
  <rect x="196" y="168" width="470" height="12" rx="6" fill="#E8E0D3"/>
  <rect x="196" y="168" width="24" height="12" rx="6" fill="#B13D44" fill-opacity="0.28"/>
  <text x="196" y="210" class="card-body">Contains a subdivision of <tspan>K</tspan><tspan baseline-shift="-18%" font-size="72%">3</tspan><tspan baseline-shift="-18%" font-size="48%">,</tspan><tspan baseline-shift="-18%" font-size="72%">3</tspan>, a Kuratowski obstruction</text>
<text x="196" y="234" class="card-body">proving nonplanarity.</text>
</g>
<g transform="translate(64 2616)">
  <rect width="720" height="272" rx="28" fill="#FFFDF8" stroke="#E3D7C7" filter="url(#card-shadow)"/>
  <rect width="720" height="12" rx="28" fill="#7D3A1B"/>
  <rect x="22" y="42" width="160" height="160" rx="22" fill="#F7F4EA" stroke="#7D3A1B" stroke-opacity="0.16"/>
  <g transform="translate(26.32 56.32) scale(0.94600004)" color="#7D3A1B" fill="none" style="--node-fill:#FFFDF8">
    <g stroke="currentColor" stroke-width="3.6" stroke-linecap="round" stroke-linejoin="round" opacity="0.94">
    <path d="M80 24L34 118"/>
    <path d="M80 24L126 118"/>
    <path d="M34 118L126 118"/>

    <path d="M80 72L80 24"/>
    <path d="M80 72L34 118"/>
    <path d="M80 72L126 118"/>
  </g>

  <g fill="var(--node-fill, #F7F4EA)" stroke="currentColor" stroke-width="2.8">
    <circle cx="80" cy="24" r="8.2"/>
    <circle cx="34" cy="118" r="8.2"/>
    <circle cx="126" cy="118" r="8.2"/>
    <circle cx="80" cy="72" r="8.2"/>
  </g>
  </g>
  <text x="196" y="58" text-anchor="start" class="card-title" fill="#102A43"><tspan>K</tspan><tspan baseline-shift="-18%" font-size="72%">4</tspan><tspan> Homeomorph</tspan></text>
  <text x="196" y="126" class="card-count">0</text>
  <text x="196" y="152" class="card-share">0.000% of evaluated molecules</text>
  <rect x="196" y="168" width="470" height="12" rx="6" fill="#E8E0D3"/>
  <rect x="196" y="168" width="24" height="12" rx="6" fill="#7D3A1B" fill-opacity="0.28"/>
  <text x="196" y="210" class="card-body">Contains a subdivision of <tspan>K</tspan><tspan baseline-shift="-18%" font-size="72%">4</tspan>, another standard</text>
<text x="196" y="234" class="card-body">obstruction to outerplanarity.</text>
</g>
<g transform="translate(816 2616)">
  <rect width="720" height="272" rx="28" fill="#FFFDF8" stroke="#E3D7C7" filter="url(#card-shadow)"/>
  <rect width="720" height="12" rx="28" fill="#3856A6"/>
  <rect x="22" y="42" width="160" height="160" rx="22" fill="#F7F4EA" stroke="#3856A6" stroke-opacity="0.16"/>
  <g transform="translate(22.19 42.19) scale(0.99759996)" color="#3856A6" fill="none" style="--node-fill:#FFFDF8">
    <g stroke="currentColor" stroke-width="2" stroke-linecap="round" stroke-linejoin="round">
    <path d="M48 42L112 42" opacity=".78"/>
    <path d="M48 42L112 80" opacity=".78"/>
    <path d="M48 42L112 118" opacity=".78"/>

    <path d="M48 80L112 42" opacity=".78"/>
    <path d="M48 80L112 80" opacity=".78"/>
    <path d="M48 80L112 118" opacity=".78"/>

    <path d="M48 118L112 80" opacity=".78"/>
    <path d="M48 118L112 118" opacity=".78"/>

    <path d="M80 22V138" stroke-dasharray="4 5" opacity=".22"/>
  </g>

  <g fill="var(--node-fill, #F7F4EA)" stroke="currentColor" stroke-width="2.5">
    <circle cx="48" cy="42" r="10"/>
    <circle cx="48" cy="80" r="10"/>
    <circle cx="48" cy="118" r="10"/>
    <circle cx="112" cy="42" r="10"/>
    <circle cx="112" cy="80" r="10"/>
    <circle cx="112" cy="118" r="10"/>
  </g>
  </g>
  <text x="196" y="58" text-anchor="start" class="card-title" fill="#102A43">Bipartite</text>
  <text x="196" y="126" class="card-count">3</text>
  <text x="196" y="152" class="card-share">100.000% of evaluated molecules</text>
  <rect x="196" y="168" width="470" height="12" rx="6" fill="#E8E0D3"/>
  <rect x="196" y="168" width="470" height="12" rx="6" fill="#3856A6" fill-opacity="1.0"/>
  <text x="196" y="210" class="card-body">Vertices split into two partitions, with edges only across</text>
<text x="196" y="234" class="card-body">the split and no odd cycle.</text>
</g>
<g transform="translate(64 2934)">
  <line x1="0" y1="0" x2="1472" y2="0" stroke="#D9E2EC" stroke-width="2"/>
  <text x="736" y="28" text-anchor="middle" class="muted">https://github.com/earth-metabolome-initiative/pubchem-topology  •  commit cafe6ca51913  •  2026-04-19</text>
</g>
</svg>
